<?xml version="1.0" encoding="UTF-8" standalone="no"?>
<!-- Created with Inkscape (http://www.inkscape.org/) -->

<svg
   width="140mm"
   height="114mm"
   viewBox="0 0 140 114"
   version="1.1"
   id="svg5"
   inkscape:version="1.1.2 (b8e25be833, 2022-02-05)"
   sodipodi:docname="camera.svg"
   xmlns:inkscape="http://www.inkscape.org/namespaces/inkscape"
   xmlns:sodipodi="http://sodipodi.sourceforge.net/DTD/sodipodi-0.dtd"
   xmlns="http://www.w3.org/2000/svg"
   xmlns:svg="http://www.w3.org/2000/svg">
  <sodipodi:namedview
     id="namedview7"
     pagecolor="#505050"
     bordercolor="#eeeeee"
     borderopacity="1"
     inkscape:pageshadow="0"
     inkscape:pageopacity="0"
     inkscape:pagecheckerboard="0"
     inkscape:document-units="mm"
     showgrid="false"
     inkscape:zoom="0.32026164"
     inkscape:cx="43.714258"
     inkscape:cy="833.69334"
     inkscape:window-width="1680"
     inkscape:window-height="987"
     inkscape:window-x="-8"
     inkscape:window-y="-8"
     inkscape:window-maximized="1"
     inkscape:current-layer="layer1" />
  <defs
     id="defs2" />
  <g
     inkscape:label="Слой 1"
     inkscape:groupmode="layer"
     id="layer1">
    <path
       style="fill:#128dcf;fill-opacity:1;stroke:none;stroke-width:0.668625"
       d="m 36.666667,112.32352 v -1.67646 H 38.333333 40 v -1.67648 -1.67647 h 1.666666 1.666667 v -1.67646 -1.67648 H 45 46.666666 v -1.67646 -1.67648 H 48.333333 50 v -1.676467 -1.676476 h 1.666666 1.666668 V 95.55882 93.882354 H 31.666667 9.9999997 V 92.205878 90.529411 H 6.6666665 3.3333332 V 88.852935 87.176469 H 1.6666666 0 V 70.411766 53.647062 H 1.6666666 3.3333332 V 51.970586 50.29412 h 3.3333333 3.3333332 v -1.676467 -1.676476 h 3.3333333 3.333333 V 45.264711 43.588234 H 18.333334 20 v -1.676466 -1.676476 h 1.666667 1.666667 V 38.558825 36.882359 H 21.666667 20 V 35.205883 33.529416 H 18.333334 16.666666 V 23.470589 13.411771 H 18.333334 20 V 10.058828 6.7058853 h 3.333334 3.333333 V 5.029419 3.3529426 H 30 33.333333 V 1.6764763 0 H 45 56.666667 v 1.6764763 1.6764663 h 1.66667 1.666662 V 5.029419 6.7058853 H 65 70.000008 V 5.029419 3.3529426 h 1.666663 1.666662 V 1.6764763 0 H 85.000002 96.66667 v 1.6764763 1.6764663 h 1.666663 1.666677 V 5.029419 6.7058853 h 1.66666 1.66667 V 8.3823616 10.058828 H 105 h 1.66667 v 3.352943 3.352942 H 108.33334 110 v 6.705876 6.705885 h -1.66666 -1.66667 v 3.352942 3.352943 H 105 103.33334 v 1.676466 1.676467 H 121.66667 140 V 67.058823 93.882354 H 110 80.000004 v 1.676466 1.676467 h 1.666662 1.666673 v 1.676476 1.676467 h 1.666663 1.666672 v 1.67648 1.67646 h 1.666663 1.666662 v 1.67648 1.67646 h 1.666673 1.666663 v 1.67647 1.67648 h 1.666672 1.666663 V 112.32352 114 h -3.333335 -3.333336 v -1.67648 -1.67646 h -1.666662 -1.666663 v -1.67648 -1.67647 h -1.666672 -1.666663 v -1.67646 -1.67648 h -1.666673 -1.666662 v -1.67646 -1.67648 h -1.666663 -1.666673 v -1.676467 -1.676476 h -3.333335 -3.333325 v 1.676476 1.676467 h 1.666663 1.666662 v 1.67648 1.67646 h 1.666673 1.666662 v 1.67648 1.67646 h 1.666673 1.666663 v 1.67647 1.67648 h 1.666662 1.666673 V 112.32352 114 h -3.333335 -3.333336 v -1.67648 -1.67646 h -1.666662 -1.666673 v -1.67648 -1.67647 h -1.666662 -1.666663 v -1.67646 -1.67648 h -3.333335 -3.333336 v 1.67648 1.67646 h -1.666672 -1.666666 v 1.67647 1.67648 h -1.666662 -1.66667 V 112.32352 114 H 53.333334 50 v -1.67648 -1.67646 h 1.666666 1.666668 v -1.67648 -1.67647 H 55 56.666667 v -1.67646 -1.67648 h 1.66667 1.666662 v -1.67646 -1.67648 h 1.666666 1.666672 v -1.676467 -1.676476 h -3.333338 -3.333332 v 1.676476 1.676467 H 55 53.333334 v 1.67648 1.67646 H 51.666666 50 v 1.67648 1.67646 h -1.666667 -1.666667 v 1.67647 1.67648 H 45 43.333333 V 112.32352 114 H 40 36.666667 Z M 106.66667,88.852935 V 87.176469 H 110 113.33334 V 85.500002 83.823526 H 115 116.66667 V 82.14706 80.470584 h 1.66667 1.66667 v -1.676467 -1.676466 h 1.66666 1.66666 v 3.352933 3.352942 h 1.66668 1.66666 v 1.676476 1.676467 H 128.33334 130 v 1.676466 1.676476 h 3.33334 3.33333 V 67.058823 43.588234 H 135 133.33334 v 1.676477 1.676466 H 131.66667 130 v 1.676476 1.676467 h -1.66666 -1.66667 v 1.676466 1.676476 h -1.66666 -1.66668 v 1.676467 1.676476 h -1.66666 -1.66666 v -1.676476 -1.676467 h -1.66667 -1.66667 V 51.970586 50.29412 H 115 113.33334 V 48.617653 46.941177 H 110 106.66667 V 45.264711 43.588234 H 80.000004 53.333334 V 41.911768 40.235292 H 55 56.666667 v -1.676467 -1.676466 h 1.66667 1.666662 v -3.352943 -3.352942 h 1.666666 1.666672 v -1.676467 -1.676476 h 3.333336 3.333335 v 1.676476 1.676467 h 1.666663 1.666662 v 3.352942 3.352943 h 3.333335 3.333336 v 1.676466 1.676467 h 6.66667 6.666661 v -1.676467 -1.676466 h 3.333335 3.33334 v -3.352943 -3.352942 h 1.66666 1.66667 v -6.705885 -6.705876 h -1.66667 -1.66666 V 13.411771 10.058828 H 96.66667 93.333335 V 8.3823616 6.7058853 h -6.666661 -6.66667 v 1.6764763 1.6764664 h -3.333336 -3.333335 v 3.352943 3.352942 h -1.666662 -1.666663 v 1.676467 1.676476 H 66.666673 63.333337 V 18.44118 16.764713 H 61.666665 59.999999 V 13.411771 10.058828 H 56.666667 53.333334 V 8.3823616 6.7058853 H 46.666666 40 v 1.6764763 1.6764664 h -3.333333 -3.333334 v 3.352943 3.352942 H 31.666667 30 v 6.705876 6.705885 h 1.666667 1.666666 v 3.352942 3.352943 H 36.666667 40 v 1.676466 1.676467 h 1.666666 1.666667 v 1.676476 1.676466 H 36.666667 30 V 67.058823 90.529411 H 68.333335 106.66667 Z M 50,68.735289 V 67.058823 H 43.333333 36.666667 V 62.029414 57.000005 H 40 43.333333 v -1.676476 -1.676467 h 5 5.000001 V 51.970586 50.29412 H 65 76.666668 v 1.676466 1.676476 h 4.999998 5.000008 v 1.676467 1.676476 h 1.666663 1.666662 v 5.029409 5.029409 h -1.666662 -1.666663 v 1.676466 1.676477 H 68.333335 50 Z M 83.333339,62.029414 V 57.000005 H 65 46.666666 v 3.352933 3.352942 H 50 53.333334 v 1.676477 1.676466 H 68.333335 83.333339 Z M 43.333333,28.500007 V 26.823531 H 41.666666 40 v -3.352942 -3.352933 h 1.666666 1.666667 V 18.44118 16.764713 H 46.666666 50 v 1.676467 1.676476 h 1.666666 1.666668 v 3.352933 3.352942 H 51.666666 50 v 1.676476 1.676467 h -3.333334 -3.333333 z m 40.000006,0 v -1.676476 h -1.666673 -1.666662 v -3.352942 -3.352933 h 1.666662 1.666673 V 18.44118 16.764713 h 3.333335 3.333325 v 1.676467 1.676476 h 1.666673 1.666663 v 3.352933 3.352942 h -1.666663 -1.666673 v 1.676476 1.676467 H 86.666674 83.333339 Z M 26.666667,70.411766 V 53.647062 H 25 23.333334 v 1.676467 1.676476 H 21.666667 20 v 1.676466 1.676467 H 18.333334 16.666666 V 70.411766 80.470584 H 18.333334 20 v 1.676476 1.676466 h 1.666667 1.666667 v 1.676476 1.676467 H 25 26.666667 Z M 16.666666,51.970586 V 50.29412 H 15 13.333333 v 1.676466 1.676476 H 15 16.666666 Z"
       id="path121" />
    <path
       style="fill:#000000;stroke-width:0.671958"
       id="path81"
       d="" />
    <path
       style="fill:#000000;stroke-width:0.671958"
       id="path61"
       d="" />
    <path
       style="fill:#000000;stroke-width:0.671958"
       id="path41"
       d="" />
    <path
       style="fill:#000000;stroke-width:0.671958"
       id="path21"
       d="" />
  </g>
</svg>
