<?xml version="1.0" encoding="UTF-8" standalone="no"?>
<!-- Created with Inkscape (http://www.inkscape.org/) -->

<svg
   width="720"
   height="220"
   viewBox="0 0 190.49999 58.208335"
   version="1.1"
   id="svg5"
   inkscape:version="1.1.2 (b8e25be833, 2022-02-05)"
   sodipodi:docname="logo.svg"
   xmlns:inkscape="http://www.inkscape.org/namespaces/inkscape"
   xmlns:sodipodi="http://sodipodi.sourceforge.net/DTD/sodipodi-0.dtd"
   xmlns="http://www.w3.org/2000/svg"
   xmlns:svg="http://www.w3.org/2000/svg">
  <sodipodi:namedview
     id="namedview7"
     pagecolor="#505050"
     bordercolor="#eeeeee"
     borderopacity="1"
     inkscape:pageshadow="0"
     inkscape:pageopacity="0"
     inkscape:pagecheckerboard="0"
     inkscape:document-units="mm"
     showgrid="false"
     units="px"
     inkscape:zoom="0.45291836"
     inkscape:cx="415.08584"
     inkscape:cy="417.29375"
     inkscape:window-width="1680"
     inkscape:window-height="987"
     inkscape:window-x="1272"
     inkscape:window-y="-36"
     inkscape:window-maximized="1"
     inkscape:current-layer="layer1" />
  <defs
     id="defs2" />
  <g
     inkscape:label="Слой 1"
     inkscape:groupmode="layer"
     id="layer1">
    <g
       id="g82255"
       transform="matrix(1.8375996,0,0,1.8236276,-126.45812,-69.931222)"
       style="opacity:1">
      <g
         id="g70244"
         style="opacity:1">
        <path
           id="path1504"
           style="fill:#fdcf0b;fill-opacity:1;stroke-width:0.858576;stroke-linecap:round;stroke-linejoin:round"
           d="m 600.17969,234.70508 a 60.319492,60.319492 0 0 0 -60.32031,60.31836 60.319492,60.319492 0 0 0 60.32031,60.32031 60.319492,60.319492 0 0 0 60.31836,-60.32031 60.319492,60.319492 0 0 0 -60.31836,-60.31836 z m -25.81836,32.60547 h 0.13672 c 4.89271,0 8.83203,3.93931 8.83203,8.83203 v 40.8457 c 0,4.89272 -3.93932,8.83203 -8.83203,8.83203 h -0.13672 c -4.89272,0 -8.83008,-3.93931 -8.83008,-8.83203 v -40.8457 c 0,-4.89272 3.93736,-8.83203 8.83008,-8.83203 z m 25.29101,0.32226 h 32.94532 c 3.9462,0 7.12304,3.1788 7.12304,7.125 v 2.2461 c 0,3.9462 -3.17684,7.12304 -7.12304,7.12304 h -8.14844 v 33.31055 c 0,4.86073 -3.91466,8.77344 -8.77539,8.77344 h -0.21094 c -4.86073,0 -8.77539,-3.91271 -8.77539,-8.77344 v -33.31055 h -7.03516 c -3.9462,0 -7.12304,-3.17684 -7.12304,-7.12304 v -2.2461 c 0,-3.9462 3.17684,-7.125 7.12304,-7.125 z"
           transform="matrix(0.26458333,0,0,0.26458333,-2.2719051,-23.751738)" />
        <g
           id="g70236">
          <text
             xml:space="preserve"
             style="font-style:normal;font-weight:normal;font-size:12.1137px;line-height:1;font-family:sans-serif;letter-spacing:0.411393px;word-spacing:0.274261px;fill:#fdcf0b;fill-opacity:1;stroke:none;stroke-width:0.796456;stroke-miterlimit:4;stroke-dasharray:none;stroke-opacity:1"
             x="67.418381"
             y="48.15131"
             id="text2904"
             transform="scale(1.0180055,0.98231293)"><tspan
               sodipodi:role="line"
               id="tspan2902"
               style="font-style:normal;font-variant:normal;font-weight:bold;font-stretch:normal;font-size:12.1137px;font-family:Arial;-inkscape-font-specification:'Arial, Bold';font-variant-ligatures:normal;font-variant-caps:normal;font-variant-numeric:normal;font-variant-east-asian:normal;fill:#fdcf0b;fill-opacity:1;stroke:none;stroke-width:0.796456;stroke-miterlimit:4;stroke-dasharray:none;stroke-opacity:1"
               x="67.418381"
               y="48.15131"
               dx="0 -0.55000001 -1.11 -0.87 -0.86000001 -0.91000003"
               dy="0 0 0 0 0 0">ELMORE</tspan></text>
          <text
             xml:space="preserve"
             style="font-style:normal;font-weight:normal;font-size:16.9333px;line-height:1;font-family:sans-serif;letter-spacing:0.411393px;word-spacing:0.274261px;fill:#34b44a;fill-opacity:1;stroke:none;stroke-width:0.796456;stroke-miterlimit:4;stroke-dasharray:none;stroke-opacity:1"
             x="66.987999"
             y="63.018631"
             id="text52950"
             transform="scale(1.0180055,0.98231296)"><tspan
               sodipodi:role="line"
               id="tspan52948"
               style="font-style:normal;font-variant:normal;font-weight:bold;font-stretch:normal;font-size:16.9333px;font-family:Arial;-inkscape-font-specification:'Arial, Bold';font-variant-ligatures:normal;font-variant-caps:normal;font-variant-numeric:normal;font-variant-east-asian:normal;fill:#34b44a;fill-opacity:1;stroke:none;stroke-width:0.796456;stroke-miterlimit:4;stroke-dasharray:none;stroke-opacity:1"
               x="66.987999"
               y="63.018631"
               dx="0 -0.81 -0.85000002 -0.92000002 -1.1799999 -1.36">STREAM</tspan></text>
        </g>
      </g>
      <g
         id="g81648" />
    </g>
  </g>
</svg>
