<?xml version="1.0" encoding="UTF-8" standalone="no"?>
<!-- Created with Inkscape (http://www.inkscape.org/) -->

<svg
   width="100mm"
   height="32mm"
   viewBox="0 0 100 32"
   version="1.1"
   id="svg5"
   inkscape:version="1.1.2 (b8e25be833, 2022-02-05)"
   sodipodi:docname="logoDark.svg"
   xmlns:inkscape="http://www.inkscape.org/namespaces/inkscape"
   xmlns:sodipodi="http://sodipodi.sourceforge.net/DTD/sodipodi-0.dtd"
   xmlns="http://www.w3.org/2000/svg"
   xmlns:svg="http://www.w3.org/2000/svg">
  <sodipodi:namedview
     id="namedview7"
     pagecolor="#505050"
     bordercolor="#eeeeee"
     borderopacity="1"
     inkscape:pageshadow="0"
     inkscape:pageopacity="0"
     inkscape:pagecheckerboard="0"
     inkscape:document-units="mm"
     showgrid="false"
     width="100mm"
     inkscape:zoom="0.90583672"
     inkscape:cx="105.97936"
     inkscape:cy="-71.756861"
     inkscape:window-width="1680"
     inkscape:window-height="987"
     inkscape:window-x="1272"
     inkscape:window-y="-36"
     inkscape:window-maximized="1"
     inkscape:current-layer="layer1" />
  <defs
     id="defs2" />
  <g
     inkscape:label="Слой 1"
     inkscape:groupmode="layer"
     id="layer1">
    <path
       style="fill:#fdcf0b;fill-opacity:1;stroke:none;stroke-width:0.551976;stroke-linecap:round;stroke-linejoin:round"
       d=""
       id="path6035"
       transform="scale(0.26458333)" />
    <path
       style="fill:#fdcf0b;fill-opacity:1;stroke:none;stroke-width:0.551976;stroke-linecap:round;stroke-linejoin:round"
       d=""
       id="path6074"
       transform="scale(0.26458333)" />
    <g
       id="g10226"
       transform="matrix(0.96371112,0,0,0.99186783,-23.543974,-128.82709)">
      <path
         style="fill:#000000;stroke-width:0.352778"
         d="m 109.4362,161.96061 c -4.43129,-0.64591 -9.496127,-4.14452 -11.602477,-8.0146 -4.48958,-8.24883 -1.15752,-18.48338 7.329887,-22.51403 6.14398,-2.91777 13.47755,-1.63625 18.31412,3.20032 3.58288,3.58288 5.30027,8.74088 4.54182,13.64089 -1.404,9.07058 -9.47481,15.01508 -18.58335,13.68742 z m 5.28683,-0.69592 c 3.12751,-0.56942 6.18445,-2.21976 8.38497,-4.52678 2.20111,-2.30763 3.13024,-3.96605 3.91182,-6.98225 0.96676,-3.73084 0.56717,-7.14544 -1.26223,-10.78627 -4.57442,-9.10387 -16.84829,-11.23512 -24.34096,-4.2266 -5.011517,4.68769 -6.293957,12.23305 -3.130837,18.42061 1.09698,2.14588 4.224077,5.34574 6.360527,6.50855 1.70029,0.92541 5.20052,1.88764 7.0781,1.9458 0.49794,0.0154 1.84731,-0.14345 2.99861,-0.35306 z m -11.51582,-7.70564 -1.0312,-1.0312 v -6.22788 -6.22789 l 1.0312,-1.03119 c 1.27073,-1.27074 2.12389,-1.29925 3.52784,-0.1179 l 1.08541,0.91331 v 6.51106 c 0,6.44261 -0.009,6.52017 -0.86591,7.37698 -1.16504,1.16503 -2.47479,1.10726 -3.74734,-0.16529 z m 3.20214,-0.37992 c 0.6512,-0.6512 0.70555,-1.17592 0.70555,-6.81174 0,-6.40565 -0.13065,-7.0061 -1.62026,-7.44631 -0.47554,-0.14053 -1.07195,0.0442 -1.6757,0.51915 l -0.93737,0.73734 v 6.148 c 0,5.67764 0.054,6.20199 0.70555,6.85356 0.38806,0.38806 1.02306,0.70556 1.41111,0.70556 0.38806,0 1.02306,-0.3175 1.41112,-0.70556 z m 7.73397,0.37992 -1.0312,-1.0312 v -4.78963 -4.78964 h -1.18004 c -1.44322,0 -2.34773,-0.90707 -2.34773,-2.35435 0,-1.99073 0.69833,-2.23176 6.46597,-2.23176 4.70532,0 5.23981,0.0641 5.88125,0.70555 1.57589,1.5759 0.21731,4.23334 -2.16424,4.23334 h -1.01076 l -0.0112,4.6743 c -0.0117,4.86881 -0.15563,5.41292 -1.64129,6.20418 -1.19121,0.63445 -1.84194,0.49801 -2.96074,-0.62079 z m 3.04652,-0.17405 c 0.6067,-0.44271 0.7049,-1.07571 0.86117,-5.55115 l 0.17639,-5.05146 1.30443,-0.21114 c 1.60946,-0.26052 2.39974,-0.88239 2.39974,-1.88837 0,-1.45364 -0.58111,-1.61486 -5.82084,-1.61486 -5.20771,0 -5.82591,0.16689 -5.81543,1.56986 0.009,1.18894 0.51881,1.64796 2.06043,1.85473 l 1.46195,0.19609 v 4.73209 c 0,4.55382 0.0326,4.7647 0.86591,5.59799 0.99191,0.99191 1.53919,1.07188 2.50625,0.36622 z m -90.331883,0.16313 c -1.238987,-0.51248 -2.356152,-2.01597 -2.414114,-3.24894 -0.05372,-1.14264 -0.01156,-1.18017 1.443975,-1.28548 1.102775,-0.0798 1.499305,0.0224 1.499305,0.3863 0,0.69564 1.156623,1.66246 1.988824,1.66246 0.3842,0 1.000708,-0.22095 1.370017,-0.49099 0.911591,-0.66657 0.240862,-1.46748 -1.502918,-1.79462 -1.950552,-0.36592 -3.782976,-1.42735 -4.255848,-2.4652 -1.130361,-2.48087 0.21252,-4.79984 3.041478,-5.25221 3.069407,-0.49081 6.227816,1.20474 5.995812,3.21879 -0.09868,0.85668 -0.273753,0.97525 -1.580532,1.07042 -1.200204,0.0874 -1.50948,-0.0188 -1.687378,-0.57927 -0.264923,-0.8347 -1.481529,-1.20646 -2.378036,-0.72667 -0.98486,0.52709 -0.539843,0.87666 2.159921,1.69669 2.936417,0.89191 3.904216,1.89768 3.904216,4.05742 0,1.68481 -0.670655,2.81093 -2.120563,3.56071 -1.08734,0.56228 -4.295041,0.67417 -5.464159,0.19059 z m 5.450025,-1.14516 c 1.373406,-0.85771 1.738385,-2.97929 0.7687,-4.46837 -0.172645,-0.26512 -1.563111,-0.90012 -3.089924,-1.41111 -2.358887,-0.78947 -2.79431,-1.05863 -2.897721,-1.79126 -0.258863,-1.83394 2.847049,-2.51443 4.115615,-0.90171 0.692066,0.87982 2.179694,1.22246 2.179694,0.50203 0,-0.20895 -0.464039,-0.84395 -1.031197,-1.41111 -0.890714,-0.89071 -1.296541,-1.03119 -2.978939,-1.03119 -2.445732,0 -3.868568,1.02467 -3.868568,2.78598 0,1.55918 0.921303,2.35235 3.826196,3.29407 2.248962,0.72907 2.47539,0.89035 2.583466,1.84005 0.149386,1.31271 -0.667315,1.95767 -2.47894,1.95767 -1.296215,0 -2.469836,-0.73262 -2.810421,-1.75437 -0.0791,-0.2373 -0.496707,-0.37621 -0.928015,-0.30868 -0.776735,0.12161 -0.778303,0.13452 -0.164861,1.3575 0.415403,0.82816 1.025897,1.37944 1.854056,1.67424 1.390529,0.49498 3.862298,0.32734 4.920859,-0.33374 z m 6.267228,1.26332 c -0.138587,-0.13858 -0.251975,-2.36864 -0.251975,-4.95567 v -4.70371 h -1.763889 -1.763889 v -1.42079 -1.4208 l 5.027083,0.0979 5.027084,0.0979 v 1.23472 c 0,1.22167 -0.01761,1.23586 -1.665863,1.34185 l -1.665862,0.10712 -0.09803,4.83176 -0.09803,4.83177 -1.247331,0.10498 c -0.686032,0.0577 -1.36072,-0.008 -1.499305,-0.14699 z m 2.217469,-5.60243 v -4.7625 h 1.763889 c 1.528704,0 1.763889,-0.0941 1.763889,-0.70556 0,-0.66792 -0.235185,-0.70555 -4.409722,-0.70555 -4.174537,0 -4.409722,0.0376 -4.409722,0.70555 0,0.61148 0.235185,0.70556 1.763888,0.70556 h 1.763889 v 4.7625 4.7625 h 0.881945 0.881944 z m 5.190864,5.60243 c -0.138586,-0.13858 -0.251975,-3.01693 -0.251975,-6.39633 v -6.14436 l 4.264686,0.11774 c 4.171734,0.11517 4.283225,0.13931 5.115278,1.10755 1.273498,1.48194 1.197509,3.88887 -0.162106,5.1346 l -1.012697,0.92787 1.365475,2.01075 c 1.80521,2.65829 1.810262,3.46058 0.02179,3.46058 -1.611688,0 -2.08109,-0.34394 -3.611015,-2.64583 -2.090372,-3.14514 -2.737718,-3.1253 -2.878488,0.0882 l -0.104312,2.38125 -1.247331,0.10498 c -0.686032,0.0577 -1.36072,-0.008 -1.499306,-0.14699 z m 2.21747,-3.30938 c 0,-1.91008 0.114661,-2.46944 0.506201,-2.46944 1.263945,0 2.378494,0.82861 3.771557,2.80397 1.098441,1.55759 1.725297,2.13492 2.318078,2.13492 0.446874,0 0.812497,-0.0946 0.812497,-0.21013 0,-0.31674 -1.41079,-2.31163 -2.388349,-3.37718 -0.862481,-0.94011 -0.821896,-1.70436 0.09051,-1.70436 0.695569,0 1.945063,-1.71759 1.945063,-2.67374 0,-0.44808 -0.377639,-1.25372 -0.839198,-1.79032 -0.794473,-0.92363 -1.029484,-0.98327 -4.409722,-1.11903 l -3.570525,-0.14342 v 5.50909 5.50909 h 0.881944 c 0.856746,0 0.881945,-0.0706 0.881944,-2.46945 z m 0,-5.29166 v -1.76389 h 2.2225 c 2.439409,0 3.069167,0.36193 3.069167,1.76389 0,1.40195 -0.629758,1.76388 -3.069167,1.76388 h -2.2225 z m 4.233333,0.52916 c 0.718703,-0.86598 -0.182784,-1.5875 -1.983473,-1.5875 -1.480709,0 -1.544304,0.0436 -1.544304,1.05834 0,1.01475 0.06359,1.05833 1.544304,1.05833 0.942343,0 1.71549,-0.20627 1.983473,-0.52917 z m 5.09511,7.83577 c -0.09593,-0.24999 -0.130634,-3.0678 -0.07712,-6.26181 l 0.09729,-5.80729 4.674306,-0.0984 4.674306,-0.0984 v 1.42135 1.42135 h -3.175 c -3.13756,0 -3.175,0.0102 -3.175,0.86768 0,0.84332 0.08169,0.87055 2.910416,0.97014 l 2.910417,0.10246 v 1.23472 1.23472 l -2.910417,0.10247 -2.910416,0.10246 v 1.04406 1.04407 h 2.978608 c 2.566547,0 3.046145,0.0964 3.466825,0.69703 0.446825,0.63793 0.665586,0.24163 2.580217,-4.67431 l 2.091997,-5.37133 1.629777,-0.10575 1.629777,-0.10576 2.355437,5.88714 c 1.295492,3.23792 2.272482,6.10332 2.171083,6.36755 -0.194797,0.50764 -2.230357,0.65678 -2.872359,0.21044 -0.205045,-0.14255 -0.581491,-0.77511 -0.836549,-1.4057 -0.447951,-1.10748 -0.533079,-1.14653 -2.499367,-1.14653 -1.925462,0 -2.048775,0.0524 -2.27862,0.96816 -0.133647,0.53249 -0.408418,1.16749 -0.610606,1.41111 -0.535125,0.64479 -2.65139,0.5577 -3.033353,-0.12483 -0.292043,-0.52186 -0.335368,-0.52186 -0.535622,0 -0.184256,0.48016 -0.901785,0.56778 -4.649745,0.56778 -3.290486,0 -4.476786,-0.11706 -4.60628,-0.45451 z m 8.663224,-1.11926 c 0,-0.40502 -0.661229,-0.53726 -3.086806,-0.61736 l -3.086805,-0.10193 -0.106126,-1.83752 -0.106126,-1.83753 2.924446,-0.10275 c 2.456233,-0.0863 2.943335,-0.20159 3.042409,-0.72011 0.104927,-0.54913 -0.216306,-0.61736 -2.906515,-0.61736 H 59.84268 v -1.5875 -1.5875 h 3.175 c 2.939814,0 3.175,-0.0523 3.175,-0.70556 0,-0.66465 -0.235186,-0.70555 -4.056944,-0.70555 h -4.056945 v 5.46805 5.46806 h 4.056945 c 3.322941,0 4.056944,-0.0933 4.056944,-0.51544 z m 4.034208,-0.71929 0.515902,-1.23472 h 2.641001 2.640997 l 0.446482,1.23472 c 0.341824,0.9453 0.64545,1.23473 1.295301,1.23473 0.536819,0 0.784758,-0.16209 0.674536,-0.44098 -4.002909,-10.12819 -4.182734,-10.4952 -5.141157,-10.49276 -0.874261,0.002 -1.057092,0.321 -2.873936,5.01086 -2.385738,6.15836 -2.328418,5.92288 -1.441712,5.92288 0.497047,0 0.889717,-0.39019 1.242586,-1.23473 z m 1.366866,-3.61597 c 0.336074,-1.64998 1.289064,-3.61597 1.752801,-3.61597 0.443061,0 1.66557,2.94777 1.66557,4.0161 0,0.45068 -0.378492,0.57001 -1.807986,0.57001 -1.785067,0 -1.805482,-0.0123 -1.610385,-0.97014 z m 2.288318,-0.84785 c -0.362416,-1.03962 -0.418938,-1.06984 -0.863593,-0.46174 -0.719455,0.98391 -0.574044,1.57418 0.387794,1.57418 0.815683,0 0.842077,-0.0617 0.475799,-1.11244 z m 6.2334,6.32383 c -0.100457,-0.26179 -0.138871,-3.08926 -0.08536,-6.28327 l 0.09729,-5.80729 h 2.116667 2.116666 l 0.772178,2.64583 c 0.424698,1.45521 0.794829,3.12209 0.822512,3.70417 0.03323,0.69911 0.224762,0.24554 0.56424,-1.33633 0.282649,-1.31707 0.706959,-2.98394 0.942915,-3.70417 l 0.429009,-1.3095 h 2.115134 2.11512 l 0.0971,5.77392 c 0.1073,6.37794 -0.0237,6.85587 -1.83097,6.67951 l -1.08838,-0.10621 -0.11871,-2.64583 -0.11872,-2.64584 -0.76323,2.64584 c -0.760042,2.63479 -0.768653,2.64628 -2.063073,2.75395 -1.525739,0.1269 -1.742549,-0.16339 -2.452084,-3.28312 l -0.481404,-2.11667 -0.176389,2.64584 -0.176389,2.64583 -1.325753,0.10966 c -0.869851,0.072 -1.388562,-0.054 -1.5084,-0.36632 z m 2.304986,-4.71163 c 0,-4.8415 0.495188,-5.23096 1.501892,-1.18122 1.348214,5.42356 1.283628,5.26757 2.181024,5.26757 0.771744,0 0.907955,-0.30685 1.838487,-4.14162 0.631409,-2.60209 1.057792,-3.81509 1.147032,-3.2632 l 0.14205,0.87843 0.26376,-0.88195 c 0.15515,-0.51877 0.27824,0.82497 0.29892,3.2632 0.0331,3.89823 0.0772,4.14514 0.74072,4.14514 0.67521,0 0.70556,-0.23519 0.70556,-5.46806 v -5.46805 h -1.36822 -1.368224 l -0.590215,2.38125 c -1.146182,4.62433 -1.289237,5.02708 -1.785634,5.02708 -0.502649,0 -0.639904,-0.37275 -1.810537,-4.91703 l -0.641777,-2.4913 h -1.509363 -1.509364 v 5.46805 5.46806 h 0.881945 0.881944 z m -57.255296,-9.5421 c -0.136116,-0.13611 -0.247483,-2.2054 -0.247483,-4.5984 v -4.35093 h 3.351389 3.351389 v 1.05833 1.05834 H 29.50379 c -1.613922,0 -2.116667,0.1215 -2.116667,0.51156 0,0.37532 0.540238,0.53974 2.028473,0.61736 1.900305,0.0991 2.028472,0.16152 2.028472,0.98774 0,0.82622 -0.128167,0.88863 -2.028472,0.98775 -1.888713,0.0985 -2.028473,0.16535 -2.028473,0.97014 0,0.82951 0.09333,0.86434 2.316488,0.86434 h 2.316488 l -0.111627,0.97013 c -0.111617,0.97006 -0.111899,0.97015 -3.303727,1.07063 -1.755655,0.0553 -3.303468,-0.0109 -3.439583,-0.14699 z m 6.102517,-1.01183 c 0,-0.4166 -0.492335,-0.52917 -2.314351,-0.52917 h -2.314351 l 0.10949,-1.32291 0.10949,-1.32292 2.028472,-0.1058 c 1.11566,-0.0582 2.028472,-0.2487 2.028472,-0.42337 0,-0.17466 -0.912812,-0.36517 -2.028472,-0.42336 -1.995162,-0.10407 -2.028472,-0.12318 -2.028472,-1.16414 0,-1.05183 0.01354,-1.05898 2.204861,-1.16336 3.202498,-0.15255 2.706358,-0.77691 -0.617361,-0.77691 h -2.822223 v 3.88055 3.88056 h 2.822223 c 2.273456,0 2.822222,-0.1029 2.822222,-0.52917 z m 1.569554,0.786 c -0.100538,-0.262 -0.13763,-2.29228 -0.08243,-4.51174 l 0.100371,-4.03537 h 1.058333 1.058334 l 0.100761,3.42235 0.100762,3.42235 2.015905,0.10543 c 1.887001,0.0987 2.015905,0.16182 2.015905,0.98737 0,0.86591 -0.05622,0.8838 -3.092574,0.98396 -2.344046,0.0773 -3.136819,-0.0133 -3.275372,-0.37435 z m 5.752112,-0.69781 c -0.08767,-0.26578 -0.940274,-0.483 -2.146064,-0.54677 l -2.000602,-0.1058 v -3.33378 c 0,-2.72818 -0.09613,-3.33378 -0.529167,-3.33378 -0.438299,0 -0.529166,0.66635 -0.529166,3.88055 v 3.88056 h 2.675231 c 1.982581,0 2.637569,-0.11418 2.529768,-0.44098 z m 1.307636,0.70873 c -0.102844,-0.268 -0.141822,-2.3032 -0.08662,-4.52266 l 0.100371,-4.03537 1.483774,-0.10772 1.483775,-0.10772 0.568529,1.95567 c 0.312691,1.07562 0.788097,2.55839 0.721775,3.09424 -0.09143,0.73869 -0.560523,0.19152 -1.081354,-1.74767 -0.643661,-2.3965 -0.74869,-2.55763 -1.667135,-2.55763 h -0.980197 v 3.90995 c 0,2.97027 0.105979,3.87503 0.440972,3.76465 0.27378,-0.0902 0.507849,-1.09381 0.617361,-2.647 0.212143,-3.00879 0.52981,-3.47999 1.035147,-1.53544 0.20678,0.7957 0.540833,2.08172 0.742339,2.85784 0.211215,0.8135 0.578962,1.41111 0.868347,1.41111 0.464853,0 0.65176,-0.47988 1.477732,-3.79402 0.498026,-1.99828 0.986626,-1.44678 1.095363,1.23638 0.07929,1.95662 0.224365,2.55764 0.617361,2.55764 0.418629,0 0.513711,-0.71825 0.513711,-3.88056 v -3.88055 h -0.99033 c -0.931168,0 -1.031274,0.15279 -1.675695,2.55763 -0.529663,1.9766 -0.924758,2.6093 -0.993912,1.7914 -0.04922,-0.58208 0.338972,-2.14417 0.594895,-3.11431 l 0.465314,-1.76389 h 1.564447 1.564448 v 4.40972 4.40972 h -1.058334 c -0.978018,0 -1.068131,-0.10708 -1.187445,-1.41111 l -0.129112,-1.41111 -0.411357,1.41111 c -0.356883,1.22425 -0.545843,1.41111 -1.426914,1.41111 -0.840572,0 -1.092335,-0.21274 -1.461164,-1.23472 -0.245084,-0.6791 -0.485086,-1.71097 -0.533336,-2.29305 -0.04825,-0.58209 -0.17939,-0.0265 -0.291422,1.23472 -0.181006,2.03765 -0.292279,2.30563 -0.999021,2.40599 -0.439487,0.0624 -0.878989,-0.10508 -0.982316,-0.37435 z m 6.428353,-4.21446 c -0.112616,-0.28142 -0.196209,-0.19782 -0.213137,0.21314 -0.01532,0.37189 0.06806,0.58025 0.185286,0.46302 0.117225,-0.11722 0.129758,-0.42149 0.02785,-0.67616 z m 5.187598,4.32569 c -2.825814,-1.21449 -3.133693,-6.32269 -0.505886,-8.39346 0.299946,-0.23636 1.445957,-0.4348 2.546691,-0.44097 1.751275,-0.01 2.130735,0.11818 3.036963,1.02441 1.756851,1.75685 1.735364,5.22745 -0.04338,7.00619 -0.959306,0.95931 -3.666794,1.39161 -5.03439,0.80383 z m 4.511468,-1.39019 c 0.988967,-0.88364 1.131743,-1.23443 1.131743,-2.78061 0,-2.20328 -0.783003,-3.46987 -2.425405,-3.92336 -1.40121,-0.38689 -3.382618,0.0195 -4.056992,0.83205 -0.691146,0.83278 -1.021361,2.94241 -0.66346,4.23862 0.737445,2.6708 3.893626,3.52795 6.014114,1.6333 z m -4.135256,-0.56026 c -0.66536,-0.66536 -0.865909,-1.23729 -0.865909,-2.46944 0,-1.92499 0.892592,-3.01465 2.469445,-3.01465 1.620373,0 2.469444,1.08286 2.469444,3.1494 0,1.45771 -0.15003,1.85629 -0.929519,2.46944 -1.220669,0.96018 -2.08561,0.9231 -3.143461,-0.13475 z m 2.854137,-0.56275 c 0.761532,-0.84148 0.864228,-2.83869 0.18787,-3.65365 -0.659704,-0.79489 -2.386575,-0.72172 -2.83717,0.12023 -0.550931,1.02942 -0.438574,2.88516 0.218653,3.61139 0.764332,0.84457 1.620615,0.81711 2.430647,-0.078 z m 3.850495,2.40086 c -0.102609,-0.2674 -0.141393,-2.30209 -0.08619,-4.52155 l 0.100373,-4.03537 2.854826,-0.10156 c 2.381917,-0.0847 2.992596,0.01 3.686528,0.5719 1.105711,0.89536 1.162392,3.08802 0.100958,3.90565 l -0.730744,0.5629 1.043262,1.51871 c 1.161232,1.69043 1.089159,2.53823 -0.215783,2.53823 -0.985781,0 -1.576377,-0.50395 -2.676321,-2.2837 -1.087536,-1.75967 -1.707264,-1.61418 -1.838536,0.43162 -0.09852,1.53546 -0.188878,1.68505 -1.07967,1.78751 -0.585921,0.0674 -1.046261,-0.0813 -1.158703,-0.37434 z m 1.670547,-1.94234 c 0.09723,-1.5153 0.1905,-1.67569 0.974436,-1.67569 0.612204,0 1.182275,0.4346 1.940278,1.47921 0.979544,1.34991 2.130729,2.16713 2.513528,1.78433 0.08375,-0.0838 -0.325092,-0.81124 -0.90853,-1.61666 -0.583442,-0.80541 -1.060799,-1.53792 -1.060799,-1.62779 0,-0.0899 0.396875,-0.56029 0.881944,-1.04536 1.066172,-1.06617 1.110788,-1.7435 0.176389,-2.6779 -0.571165,-0.57116 -1.175925,-0.70555 -3.175,-0.70555 h -2.469445 v 3.88055 c 0,3.14881 0.09614,3.88056 0.509838,3.88056 0.35795,0 0.541871,-0.49921 0.617361,-1.6757 z m 0.06855,-3.06115 c -0.106267,-0.27693 -0.140973,-0.87224 -0.07712,-1.32291 0.125677,-0.88707 1.382677,-1.24137 2.98094,-0.84023 0.924952,0.23214 1.159937,1.49937 0.415985,2.24332 -0.603042,0.60304 -3.08059,0.54321 -3.319805,-0.0802 z m 2.972365,-0.99579 c 0.0937,-0.49461 -0.13371,-0.61736 -1.143639,-0.61736 -1.038306,0 -1.260588,0.12835 -1.260588,0.7279 0,0.6084 0.187763,0.70976 1.143639,0.61736 0.753198,-0.0728 1.183566,-0.32131 1.260588,-0.7279 z m 3.751245,5.98897 c -0.100433,-0.26173 -0.137435,-2.29178 -0.08223,-4.51124 l 0.100373,-4.03537 h 3.351389 c 3.339631,0 3.351389,0.003 3.351389,0.88194 0,0.83547 -0.116202,0.88748 -2.204862,0.98698 -1.606546,0.0765 -2.204861,0.23927 -2.204861,0.59975 0,0.35483 0.573624,0.52465 2.028473,0.60053 1.900304,0.0991 2.028472,0.16152 2.028472,0.98774 0,0.82622 -0.128168,0.88863 -2.028472,0.98775 -1.888713,0.0985 -2.028473,0.16535 -2.028473,0.97014 0,0.82951 0.09333,0.86434 2.316487,0.86434 h 2.316487 l -0.111625,0.97013 -0.111626,0.97014 -3.269157,0.10151 c -2.490152,0.0773 -3.312668,-0.0119 -3.451761,-0.37434 z m 6.191751,-0.7855 c 0,-0.4166 -0.492337,-0.52917 -2.314353,-0.52917 h -2.314349 l 0.109488,-1.32291 0.109492,-1.32292 2.028472,-0.1058 c 1.11566,-0.0582 2.028472,-0.2487 2.028472,-0.42337 0,-0.17466 -0.912812,-0.36517 -2.028472,-0.42336 -1.995163,-0.10407 -2.028472,-0.12318 -2.028472,-1.16414 0,-1.05183 0.01355,-1.05898 2.204861,-1.16336 3.202499,-0.15255 2.706359,-0.77691 -0.617361,-0.77691 h -2.822223 v 3.88055 3.88056 h 2.822223 c 2.273455,0 2.822222,-0.1029 2.822222,-0.52917 z"
         id="path2484"
         sodipodi:nodetypes="sssssssssssssssscccsscscssssccssssccccssssscssscsscssscscssssssssssssssssssssssssssssssssssssssscccccccssccccssccsssssccccccsscssscssssccsssssssssssscccssccsssccssssssscccccssscccccccssscccsssssssssssssscccssscccssscccssscccssccsssssssssssscscccssssccccscccsssccccccssssscscsscccssscccccccssscccccssssssscscssscccsssssscccsssscccccssssssscssscsssscccsssscsssssssssscsssscccccsscssssssssssssssscsssssssssssssssscsssccssccsscssssssssscssssscsssssssssssssssscsscsssssscccssssscccsssssscccss" />
      <path
         style="fill:#fdcf0b;fill-opacity:1;stroke:none;stroke-width:0.146044;stroke-linecap:round;stroke-linejoin:round"
         d="m 110.14876,161.35237 c -2.70504,-0.49505 -5.11257,-1.4193 -6.61196,-2.53832 -1.43651,-1.07209 -3.714173,-3.43458 -4.585859,-4.75665 -1.916348,-2.90649 -2.697067,-6.82299 -2.0961,-10.51514 0.618071,-3.79725 2.536248,-7.09215 5.535159,-9.50791 1.3607,-1.09611 3.84999,-2.37919 5.4757,-2.82241 7.03531,-1.91804 14.43372,1.29784 17.74778,7.71447 1.84661,3.57539 2.27976,7.08122 1.32763,10.74575 -0.72123,2.77587 -1.56522,4.37732 -3.41055,6.47147 -2.26253,2.56759 -5.53446,4.42366 -8.91139,5.05518 -1.81941,0.34025 -3.19258,0.38742 -4.47041,0.15356 z m -3.97009,-6.94771 c 0.47727,-0.2452 1.11733,-0.87546 1.39085,-1.36957 0.21349,-0.38565 0.24822,-1.20559 0.28997,-6.84596 l 0.0474,-6.40784 -0.54336,-0.45621 c -1.19674,-1.00479 -1.68407,-1.25945 -2.41011,-1.25945 -0.74433,0 -1.01522,0.16218 -2.28942,1.37069 l -0.62068,0.58869 v 6.21717 6.21718 l 0.91277,0.90154 c 0.50202,0.49585 1.07707,0.96625 1.27788,1.04534 0.50175,0.19761 1.55864,0.19676 1.94468,-0.002 z m 11.14183,-0.26662 c 0.49462,-0.2837 0.82876,-0.60255 0.99205,-0.94665 0.37561,-0.79156 0.52347,-2.59035 0.52469,-6.38318 l 0.001,-3.45205 1.00194,-0.0566 c 0.78558,-0.0444 1.13184,-0.14259 1.60359,-0.45477 1.54213,-1.02054 1.59345,-3.23066 0.0963,-4.14613 -0.40231,-0.246 -0.84414,-0.26791 -5.40362,-0.26791 -4.76868,0 -4.99232,0.0124 -5.64275,0.31312 -0.81857,0.37844 -1.08774,0.98795 -0.94997,2.15115 0.1609,1.35858 0.93128,2.02659 2.43515,2.11157 l 1.01764,0.0575 v 4.77332 4.77332 l 0.54766,0.51611 c 1.2639,1.19109 1.67643,1.4418 2.36997,1.44036 0.46132,-0.001 0.88529,-0.13034 1.40626,-0.42914 z"
         id="path2621" />
      <path
         style="fill:#fdcf0b;fill-opacity:1;stroke:none;stroke-width:0.146044;stroke-linecap:round;stroke-linejoin:round"
         d="m 59.394987,138.27518 c -0.07834,-0.20604 -0.142428,-1.91475 -0.142428,-3.79713 v -3.42252 l 2.008098,8e-4 c 1.104455,5.3e-4 2.24808,0.0675 2.541386,0.14893 0.638741,0.17742 1.584346,1.16478 1.584346,1.6543 0,0.35819 -0.599966,1.27449 -1.160494,1.77238 -0.679199,0.6033 -0.66312,0.68957 0.44074,2.36442 0.569931,0.86475 0.969487,1.59452 0.887897,1.62171 -0.394121,0.13138 -1.359704,-0.68159 -2.651032,-2.23203 -0.603922,-0.72509 -1.174631,-1.09526 -1.688616,-1.09526 -0.709377,0 -0.890847,0.27958 -1.010542,1.55691 -0.160882,1.71686 -0.483198,2.28533 -0.809355,1.42747 z m 3.800748,-3.9054 c 0.722582,-0.24641 1.115695,-1.05531 0.871884,-1.79406 -0.237358,-0.7192 -0.889802,-0.98447 -2.234496,-0.90848 -0.885257,0.05 -1.052008,0.10668 -1.356802,0.46102 -0.348004,0.40458 -0.46472,1.2267 -0.252622,1.77942 0.222086,0.57875 1.875925,0.83589 2.972036,0.4621 z"
         id="path4686" />
      <path
         style="fill:#fdcf0b;fill-opacity:1;stroke:none;stroke-width:0.146044;stroke-linecap:round;stroke-linejoin:round"
         d="m 52.353324,138.45089 c -1.216911,-0.45414 -2.004999,-1.33991 -2.305079,-2.59079 -0.290764,-1.21203 0.07162,-3.2685 0.701119,-3.97877 0.65259,-0.73632 2.522429,-1.13943 3.830132,-0.82572 1.496727,0.35906 2.340587,1.5242 2.451754,3.38521 0.09159,1.5332 -0.03831,2.07821 -0.65909,2.76534 -1.101149,1.21884 -2.73348,1.72441 -4.018836,1.24473 z m 2.428833,-0.9293 c 1.046308,-0.74035 1.18442,-1.04856 1.18442,-2.64312 0,-1.14888 -0.05701,-1.52249 -0.304792,-1.99739 -0.447569,-0.85783 -1.093512,-1.24142 -2.090015,-1.24115 -1.59503,5.3e-4 -2.425475,0.8506 -2.591681,2.65318 -0.111593,1.21033 0.125196,2.03791 0.795591,2.78061 0.978829,1.0844 1.910721,1.22322 3.006477,0.44787 z"
         id="path5809" />
      <path
         style="fill:#fdcf0b;fill-opacity:1;stroke:none;stroke-width:0.146044;stroke-linecap:round;stroke-linejoin:round"
         d="m 67.723089,134.85267 v -3.79714 h 2.172398 c 2.185742,0 3.085172,0.0863 3.085172,0.296 0,0.10971 -0.490723,0.17631 -2.7432,0.37229 -1.255813,0.10927 -1.492065,0.28974 -1.492065,1.13977 0,0.99642 0.156226,1.09949 1.898565,1.25253 0.843402,0.0741 1.693979,0.1941 1.89017,0.26669 l 0.356709,0.13199 -0.429731,0.11004 c -0.236352,0.0605 -1.135301,0.15754 -1.997665,0.21558 -0.862362,0.058 -1.598258,0.13586 -1.635326,0.17293 -0.03707,0.0371 -0.113133,0.67327 -0.169035,1.41379 l -0.101639,1.3464 2.102075,0.002 c 2.129917,0.002 2.575456,0.0891 2.427996,0.47341 -0.121669,0.31706 -0.787392,0.40061 -3.192026,0.40061 h -2.172398 z"
         id="path5848" />
      <path
         style="fill:#fdcf0b;fill-opacity:1;stroke:none;stroke-width:0.146044;stroke-linecap:round;stroke-linejoin:round"
         d="m 34.481424,135.87497 c 0,-1.00405 0.02334,-1.4148 0.05185,-0.91277 0.02852,0.50202 0.02852,1.32352 0,1.82554 -0.02852,0.50203 -0.05185,0.0913 -0.05185,-0.91277 z"
         id="path6150" />
      <path
         style="fill:#fdcf0b;fill-opacity:1;stroke:none;stroke-width:0.146044;stroke-linecap:round;stroke-linejoin:round"
         d="m 33.438751,135.12116 c 0.04235,-1.95496 0.124349,-3.66949 0.182216,-3.81005 0.147413,-0.3581 0.472374,-0.31837 0.597252,0.073 0.05766,0.18073 0.144243,1.67585 0.192394,3.32249 l 0.08755,2.9939 1.606478,0.0961 c 1.787951,0.10697 2.56939,0.31361 2.280439,0.60302 -0.120047,0.12024 -0.955128,0.193 -2.600092,0.22655 l -2.423248,0.0494 z"
         id="path6189" />
      <path
         style="fill:#fdcf0b;fill-opacity:1;stroke:none;stroke-width:0.146044;stroke-linecap:round;stroke-linejoin:round"
         d="m 25.662528,134.86685 v -3.81132 l 2.300187,0.0173 c 3.675901,0.0276 4.202163,0.32403 1.031208,0.58082 -0.980532,0.0794 -1.868344,0.21539 -1.972916,0.30218 -0.267562,0.22205 -0.25052,1.64262 0.02241,1.86915 0.116906,0.097 0.879901,0.23437 1.695545,0.30521 0.815644,0.0709 1.62256,0.17312 1.793145,0.22726 0.302429,0.096 0.301119,0.1019 -0.05255,0.23729 -0.19949,0.0764 -1.041336,0.17534 -1.870768,0.21994 -1.790988,0.0963 -1.923968,0.18418 -1.923968,1.27155 0,0.426 -0.04107,0.97993 -0.09128,1.23094 l -0.09128,0.45639 h 2.107975 c 1.600454,0 2.176227,0.0504 2.391463,0.20923 0.232881,0.17188 0.249624,0.24358 0.09378,0.40162 -0.138912,0.14087 -0.891654,0.20596 -2.811338,0.24308 l -2.621632,0.0507 z"
         id="path6228" />
      <path
         style="fill:#fdcf0b;fill-opacity:1;stroke:none;stroke-width:0.0182555;stroke-linecap:round;stroke-linejoin:round"
         d="m 43.99914,138.65287 c -0.144838,-0.0923 -0.269883,-0.25347 -0.406085,-0.5235 -0.189606,-0.37591 -0.210863,-0.44644 -0.679397,-2.2544 -0.419333,-1.6181 -0.470665,-1.80674 -0.566045,-2.08016 -0.144946,-0.4155 -0.270264,-0.57851 -0.386302,-0.50248 -0.200348,0.13127 -0.32938,0.86008 -0.471072,2.66077 -0.05167,0.6567 -0.08211,0.9379 -0.1461,1.35 -0.124706,0.80306 -0.299696,1.27885 -0.485336,1.31962 -0.195392,0.0429 -0.301585,-0.3429 -0.364368,-1.32382 -0.03057,-0.47757 -0.05282,-2.30956 -0.0535,-4.40413 l -5.3e-4,-1.93052 0.616122,1.4e-4 c 0.338865,8e-5 0.667764,0.009 0.730885,0.0188 0.264936,0.043 0.427697,0.15071 0.571299,0.37809 0.178671,0.2829 0.328512,0.72429 0.673984,1.98535 0.140851,0.51414 0.284371,0.99002 0.365334,1.21136 0.252643,0.69069 0.475207,1.05206 0.629647,1.02232 0.05093,-0.01 0.114708,-0.11454 0.129845,-0.21323 l 0.0131,-0.0854 0.02199,0.12871 c 0.02932,0.17172 0.06831,0.24553 0.129665,0.24553 0.181898,0 0.465854,-0.68626 0.828979,-2.00347 0.07129,-0.25858 0.190233,-0.68373 0.264329,-0.94478 0.375524,-1.32304 0.562028,-1.63405 1.029962,-1.71754 0.09732,-0.0173 0.322012,-0.0248 0.764453,-0.0252 l 0.626615,-5.3e-4 -0.0082,3.01672 c -0.0053,1.95445 -0.01543,3.11956 -0.02867,3.3088 -0.07546,1.07842 -0.186658,1.41479 -0.467682,1.41479 -0.0832,0 -0.196607,-0.0574 -0.242708,-0.12281 -0.202846,-0.28788 -0.287922,-0.84107 -0.360132,-2.34167 -0.06158,-1.2796 -0.1533,-1.94627 -0.317646,-2.30873 -0.07186,-0.15848 -0.125817,-0.21053 -0.218278,-0.21053 -0.0633,0 -0.08174,0.0107 -0.148088,0.0861 -0.170746,0.19398 -0.266414,0.47095 -0.559826,1.62079 -0.550646,2.15787 -0.77555,2.85086 -1.012495,3.11974 -0.143065,0.16234 -0.321796,0.20212 -0.473617,0.10541 z"
         id="path6699" />
      <path
         style="fill:#34b44a;fill-opacity:1;stroke:none;stroke-width:0.780612;stroke-linecap:round;stroke-linejoin:round"
         d="m 219.74221,556.45299 v -20.4191 l 14.20829,0.51466 c 7.81457,0.28306 14.53544,0.8418 14.93528,1.24163 0.39984,0.39984 0.51572,1.27751 0.25752,1.95037 -0.39645,1.03311 -2.23371,1.22339 -11.81283,1.22339 H 225.9871 v 6.6352 6.6352 h 10.88249 c 5.98538,0 11.075,0.31147 11.31028,0.69216 0.23528,0.38069 -0.13318,1.15772 -0.81881,1.72674 -1.09451,0.90836 -3.74893,1.19537 -20.3982,2.20556 -1.18227,0.0717 -1.36484,11.50433 -0.21285,13.32961 0.57246,0.90704 3.11907,1.27206 11.30038,1.61974 5.80876,0.24685 10.77513,0.66257 11.03639,0.92383 1.67699,1.67698 -1.55802,2.1401 -14.94933,2.1401 h -14.39524 z"
         id="path9817"
         transform="scale(0.26458333)" />
      <path
         style="fill:#34b44a;fill-opacity:1;stroke:none;stroke-width:0.275988;stroke-linecap:round;stroke-linejoin:round"
         d="m 106.01799,577.78451 c -4.59794,-0.95724 -7.473554,-3.20859 -9.649047,-7.55435 -1.44165,-2.87983 -1.549543,-3.46921 -0.716684,-3.91494 0.771384,-0.41283 3.285321,-0.444 4.01094,-0.0497 0.320944,0.17439 0.918441,1.00159 1.327761,1.83823 1.93228,3.94943 7.38144,6.26341 12.86687,5.4639 5.24587,-0.76459 7.11172,-2.68531 6.82986,-7.03071 -0.2471,-3.80964 -0.88909,-4.31931 -9.00294,-7.14732 -10.7462,-3.74549 -13.710387,-5.78516 -14.845287,-10.21511 -1.138136,-4.44258 1.034538,-8.97372 5.272777,-10.99645 2.78639,-1.32982 5.34853,-1.72958 10.32202,-1.61052 4.01721,0.0962 4.42028,0.15502 5.95938,0.87 1.95147,0.90654 5.9462,4.81248 7.04197,6.88544 0.89366,1.69061 0.61317,2.23644 -1.21056,2.35568 -1.89593,0.12396 -3.86217,-0.88116 -6.1212,-3.12909 -2.36738,-2.35576 -4.16143,-3.21887 -7.0367,-3.38531 -4.68728,-0.27135 -8.36617,1.96117 -8.74315,5.30575 -0.43246,3.8368 0.90123,4.93851 9.7271,8.03516 7.28411,2.5557 11.63731,4.47266 12.61356,5.55445 0.25854,0.2865 0.81742,1.26271 1.24194,2.16935 0.71069,1.51781 0.77186,1.91089 0.77186,4.9603 0,3.13993 -0.045,3.40674 -0.86611,5.13982 -1.60226,3.38168 -3.64778,4.98625 -7.73795,6.06991 -2.84003,0.75244 -9.30156,0.95907 -12.05641,0.38554 z"
         id="path9856"
         transform="scale(0.26458333)" />
      <path
         style="fill:#34b44a;fill-opacity:1;stroke:none;stroke-width:0.275988;stroke-linecap:round;stroke-linejoin:round"
         d="m 147.51555,559.45165 v -17.9151 l -5.73959,-0.0931 c -4.91449,-0.0797 -5.84623,-0.16305 -6.48134,-0.57959 -1.41947,-0.93096 -1.29696,-3.02416 0.22187,-3.7907 0.68909,-0.34777 2.95104,-0.4285 14.02901,-0.50068 16.91125,-0.1102 17.97283,0.0407 17.78538,2.52808 -0.0618,0.82056 -0.27501,1.23416 -0.86083,1.67021 -0.72203,0.53743 -1.1985,0.58633 -6.55471,0.67268 l -5.77608,0.0931 v 17.9151 17.9151 h -3.31186 -3.31185 z"
         id="path9895"
         transform="scale(0.26458333)" />
      <path
         style="fill:#34b44a;fill-opacity:1;stroke:none;stroke-width:0.275988;stroke-linecap:round;stroke-linejoin:round"
         d="m 175.66632,556.76411 v -20.60263 l 5.86474,0.18883 c 13.69142,0.44082 18.69565,0.87521 20.76354,1.80237 2.33396,1.04646 5.35579,5.06527 6.20366,8.2504 0.25913,0.97344 0.23441,1.47364 -0.13636,2.75988 -1.1124,3.85898 -4.90126,8.33266 -7.05713,8.33266 -1.49999,0 -2.73891,1.03966 -2.72876,2.28988 0.007,0.81904 1.44562,3.24518 2.89781,4.8858 3.40353,3.84515 8.415,10.95772 8.415,11.94305 0,0.57112 -0.59392,0.7524 -2.46506,0.7524 -1.3139,0 -1.77994,-0.13727 -2.6683,-0.7859 -1.62504,-1.18649 -3.32619,-3.12524 -6.46821,-7.37162 -5.08991,-6.87891 -8.8827,-9.89034 -12.91727,-10.25619 -1.95563,-0.17733 -2.37312,0.0505 -2.82066,1.53932 -0.16617,0.55279 -0.38788,4.24302 -0.49268,8.20051 -0.24034,9.07515 -0.0657,8.67388 -3.7748,8.67388 h -2.61552 z m 22.80583,-2.42623 c 2.73533,-0.95217 3.73215,-2.53827 3.7471,-5.96224 0.0116,-2.64857 -0.38219,-3.87019 -1.58899,-4.92977 -1.73763,-1.52566 -3.05806,-1.74767 -11.23354,-1.8888 l -7.38268,-0.12743 v 6.81717 6.81717 l 7.52067,-0.11646 c 6.29995,-0.0976 7.75064,-0.19652 8.93744,-0.60964 z"
         id="path9934"
         transform="scale(0.26458333)" />
      <path
         style="fill:#34b44a;fill-opacity:1;stroke:none;stroke-width:0.275988;stroke-linecap:round;stroke-linejoin:round"
         d="m 258.83769,576.95069 c -0.3953,-1.03013 0.55556,-3.80336 6.95448,-20.28304 7.49851,-19.31156 7.97231,-20.14712 11.42431,-20.14712 1.25759,0 1.49515,0.10482 2.4286,1.07154 1.88177,1.94885 4.04754,6.73999 11.67944,25.83729 4.78537,11.97445 5.15026,13.00855 4.7474,13.45441 -0.62644,0.6933 -3.23246,0.65911 -4.40828,-0.0578 -1.06009,-0.64637 -1.49054,-1.42058 -2.9984,-5.39293 l -1.15238,-3.03587 -10.13157,-0.0724 -10.13157,-0.0724 -0.59327,1.45236 c -1.43084,3.50277 -3.09521,6.41087 -4.02575,7.03406 -1.13269,0.75855 -3.53181,0.89263 -3.79301,0.21197 z m 22.79726,-14.23479 c 1.5732,-0.33739 1.94265,-0.78978 1.94265,-2.37881 0,-2.7968 -3.07976,-11.05664 -5.14993,-13.81199 -1.34823,-1.79447 -2.53022,-0.97376 -4.6349,3.21822 -1.96061,3.90504 -4.01504,10.86229 -3.59674,12.18022 0.0877,0.27626 0.49527,0.62513 0.90575,0.77527 1.02149,0.37363 8.81173,0.38628 10.53317,0.0171 z"
         id="path9973"
         transform="scale(0.26458333)" />
      <path
         style="fill:#34b44a;fill-opacity:1;stroke:none;stroke-width:0.275988;stroke-linecap:round;stroke-linejoin:round"
         d="m 305.10465,556.94364 v -20.42311 h 5.51205 5.51205 l 0.4031,1.44894 c 0.2217,0.79691 1.41545,5.36107 2.65279,10.14256 3.16819,12.24299 4.32547,15.70353 5.38798,16.11125 1.65725,0.63595 2.63888,-0.28445 3.70307,-3.47206 0.78931,-2.36425 3.64305,-13.22431 5.31562,-20.22886 l 0.92262,-3.86383 5.16649,-0.0751 5.1665,-0.0751 -0.0234,9.32069 c -0.0128,5.12637 -0.11481,13.85378 -0.22657,19.39424 -0.24034,11.91413 -0.28475,12.14347 -2.35149,12.14347 -1.00992,0 -1.33184,-0.12541 -1.67796,-0.65365 -0.62642,-0.95605 -0.95924,-4.5772 -0.96724,-10.52386 -0.008,-5.83069 -0.43552,-15.80414 -0.70818,-16.51468 -0.31037,-0.80882 -0.62863,-0.49683 -1.13641,1.11402 l -0.49572,1.57261 -0.18942,-1.32424 c -0.27808,-1.94399 -0.42287,-2.23127 -0.91761,-1.82067 -0.59914,0.49724 -1.87522,4.68757 -4.03414,13.24712 -3.62168,14.35899 -3.87488,14.90335 -6.93224,14.90335 -2.80061,0 -2.98151,-0.40011 -6.5639,-14.51752 -2.35299,-9.2726 -3.3041,-12.50876 -4.20961,-14.32322 -0.89273,-1.78886 -1.42874,-1.94912 -1.99403,-0.59618 -0.70871,1.69618 -0.96664,6.50256 -0.96664,18.01266 v 11.42426 h -3.17386 -3.17387 z"
         id="path10012"
         transform="scale(0.26458333)" />
    </g>
  </g>
</svg>
