<?xml version="1.0" encoding="UTF-8" standalone="no"?>
<!-- Created with Inkscape (http://www.inkscape.org/) -->

<svg
   width="56"
   height="56"
   viewBox="0 0 14.816666 14.816667"
   version="1.1"
   id="svg3366"
   inkscape:version="1.1.2 (b8e25be833, 2022-02-05)"
   sodipodi:docname="next.svg"
   xmlns:inkscape="http://www.inkscape.org/namespaces/inkscape"
   xmlns:sodipodi="http://sodipodi.sourceforge.net/DTD/sodipodi-0.dtd"
   xmlns="http://www.w3.org/2000/svg"
   xmlns:svg="http://www.w3.org/2000/svg">
  <sodipodi:namedview
     id="namedview3368"
     pagecolor="#505050"
     bordercolor="#eeeeee"
     borderopacity="1"
     inkscape:pageshadow="0"
     inkscape:pageopacity="0"
     inkscape:pagecheckerboard="0"
     inkscape:document-units="mm"
     showgrid="false"
     units="px"
     inkscape:zoom="5.1241862"
     inkscape:cx="33.761459"
     inkscape:cy="42.933647"
     inkscape:window-width="1680"
     inkscape:window-height="987"
     inkscape:window-x="-8"
     inkscape:window-y="-8"
     inkscape:window-maximized="1"
     inkscape:current-layer="layer1" />
  <defs
     id="defs3363" />
  <g
     inkscape:label="Слой 1"
     inkscape:groupmode="layer"
     id="layer1">
    <g
       id="g12154"
       transform="rotate(180,7.4083342,7.4083325)">
      <g
         id="g12196">
        <path
           id="rect2347"
           style="fill:#b0b0b0;stroke:#888888;stroke-width:1.05267;stroke-linecap:round;stroke-linejoin:round;stroke-miterlimit:4;stroke-dasharray:none"
           d="m 4.9870979,13.66605 c 0,0.345851 -0.2786238,0.62428 -0.624717,0.62428 h -3.211326 c -0.34609337,0 -0.62471719,-0.278429 -0.62471719,-0.62428 V 1.1506149 c 0,-0.34585049 0.27862382,-0.6242788 0.62471719,-0.6242788 h 3.211326 c 0.3460932,0 0.624717,0.27842831 0.624717,0.6242788 V 4.2794736 C 7.0420964,3.0005442 11.472319,0.49116557 12.363769,0.65248135 13.084144,0.78283924 14.263684,1.1506082 14.263686,2.3542153 v 1.8e-6 l 9e-6,5.2136228 c 10e-6,5.8919161 0.194651,5.3965041 -0.48402,6.0533261 -0.445768,0.43142 -0.748495,0.541731 -1.345905,0.601026 -0.822403,0.08163 -1.252115,-0.106479 -3.1558923,-1.297304 C 8.0748109,12.172362 5.1642195,10.645797 4.9870979,10.537079 Z"
           sodipodi:nodetypes="sssssssscssssssscs" />
      </g>
    </g>
  </g>
</svg>
