<?xml version="1.0" encoding="UTF-8" standalone="no"?>
<!-- Created with Inkscape (http://www.inkscape.org/) -->

<svg
   width="56"
   height="84"
   viewBox="0 0 14.816654 22.224997"
   version="1.1"
   id="svg3366"
   sodipodi:docname="playstop.svg"
   inkscape:version="1.1.2 (b8e25be833, 2022-02-05)"
   xmlns:inkscape="http://www.inkscape.org/namespaces/inkscape"
   xmlns:sodipodi="http://sodipodi.sourceforge.net/DTD/sodipodi-0.dtd"
   xmlns="http://www.w3.org/2000/svg"
   xmlns:svg="http://www.w3.org/2000/svg">
  <sodipodi:namedview
     id="namedview3368"
     pagecolor="#505050"
     bordercolor="#eeeeee"
     borderopacity="1"
     inkscape:pageshadow="0"
     inkscape:pageopacity="0"
     inkscape:pagecheckerboard="0"
     inkscape:document-units="px"
     showgrid="false"
     units="px"
     inkscape:zoom="5.5437172"
     inkscape:cx="29.22227"
     inkscape:cy="58.44454"
     inkscape:window-width="1680"
     inkscape:window-height="987"
     inkscape:window-x="-8"
     inkscape:window-y="-8"
     inkscape:window-maximized="1"
     inkscape:current-layer="layer1" />
  <defs
     id="defs3363" />
  <g
     inkscape:label="Слой 1"
     inkscape:groupmode="layer"
     id="layer1">
    <path
       style="fill:#000000;stroke-width:0.264583"
       id="path3459"
       d="" />
    <path
       style="fill:#000000;stroke-width:0.264583"
       id="path3439"
       d="" />
    <g
       inkscape:label="Слой 1"
       id="layer1-4"
       transform="matrix(0.49932907,0,0,0.49722331,3.7025186,12.962979)"
       style="fill:#b0b0b0;fill-opacity:1;stroke:#888888;stroke-width:1.05316;stroke-linecap:round;stroke-miterlimit:4;stroke-dasharray:none;stroke-opacity:1">
      <path
         style="fill:#b0b0b0;fill-opacity:1;stroke:#888888;stroke-width:1.05316;stroke-linecap:round;stroke-miterlimit:4;stroke-dasharray:none;stroke-opacity:1"
         id="path3459-3"
         d="" />
      <path
         style="fill:#b0b0b0;fill-opacity:1;stroke:#888888;stroke-width:1.05316;stroke-linecap:round;stroke-miterlimit:4;stroke-dasharray:none;stroke-opacity:1"
         id="path3439-8"
         d="" />
      <path
         style="fill:#b0b0b0;fill-opacity:1;stroke:#888888;stroke-width:1.05316;stroke-linecap:round;stroke-miterlimit:4;stroke-dasharray:none;stroke-opacity:1"
         d="M 9.9980714,2.9607123 C 10.020561,1.6176257 10.150477,0.98731758 10.4083,0.48509147 10.648341,0.01750471 10.819105,-0.02026039 12.572533,0.00643252 l 1.502738,0.02287736 0.206607,0.22993469 c 0.116542,0.12970018 0.278111,0.45603221 0.370633,0.74859793 l 0.164029,0.518666 v 5.7749089 c 0,6.0816836 -0.0044,6.1744866 -0.324947,6.8086896 -0.267128,0.528561 -0.279165,0.532116 -1.888482,0.557635 -0.908194,0.0144 -1.544092,-0.0062 -1.710867,-0.05526 -0.550712,-0.16221 -0.74522,-0.733022 -0.885209,-2.597778 C 9.951428,11.273963 9.893634,10.65568 9.922835,7.4540055 Z"
         id="path3571"
         sodipodi:nodetypes="ssscsccscccscs" />
      <path
         style="fill:#b0b0b0;fill-opacity:1;stroke:#888888;stroke-width:1.05316;stroke-linecap:round;stroke-miterlimit:4;stroke-dasharray:none;stroke-opacity:1"
         d="M 4.8184684,2.9646831 C 4.795979,1.6197952 4.666063,0.98864175 4.40824,0.48574207 4.168199,0.01752819 3.997435,-0.02028757 2.244007,0.00644115 L 0.741269,0.02934919 0.534662,0.25959226 C 0.41812,0.38946639 0.256551,0.7162361 0.164029,1.0091942 L 0,1.5285558 v 5.7826541 c 0,6.0898411 0.0044,6.1827681 0.324947,6.8178221 0.267128,0.529269 0.279165,0.532828 1.888482,0.558383 0.908194,0.01441 1.544092,-0.0062 1.710867,-0.05534 0.550712,-0.162427 0.74522,-0.734005 0.885209,-2.601262 0.055607,-0.741734 0.1134008,-1.360847 0.0842,-4.5668154 z"
         id="path5099"
         sodipodi:nodetypes="ssscsccscccscs" />
    </g>
    <g
       inkscape:label="Слой 1"
       id="layer1-3"
       style="fill:#b0b0b0;fill-opacity:1;stroke:#888888;stroke-width:1.05833;stroke-linecap:round;stroke-miterlimit:4;stroke-dasharray:none;stroke-opacity:1"
       transform="matrix(0.50749736,0,0,0.50817148,3.7085098,1.8557235)">
      <path
         style="fill:#b0b0b0;fill-opacity:1;stroke:#888888;stroke-width:1.05833;stroke-linecap:round;stroke-miterlimit:4;stroke-dasharray:none;stroke-opacity:1"
         id="path3459-1"
         d="" />
      <path
         style="fill:#b0b0b0;fill-opacity:1;stroke:#888888;stroke-width:1.05833;stroke-linecap:round;stroke-miterlimit:4;stroke-dasharray:none;stroke-opacity:1"
         id="path3439-6"
         d="" />
      <path
         style="fill:#b0b0b0;fill-opacity:1;stroke:#888888;stroke-width:1.05833;stroke-linecap:round;stroke-miterlimit:4;stroke-dasharray:none;stroke-opacity:1"
         d="M 3.3042738,14.773597 C 3.2180989,14.729377 3.0186528,14.692577 2.8610664,14.691817 2.4214294,14.689717 1.265065,14.181467 0.96453965,13.858258 0.81688742,13.69946 0.55588309,13.327422 0.38453025,13.031502 L 0.07297882,12.493466 0.02547572,8.682379 C -6.484854e-4,6.5862819 -0.0191702,4.0563618 0.03476655,3.0603365 c 0,0 0.06377704,-1.5181339 0.21789688,-1.7613485 C 0.41935887,1.0359243 0.66535501,0.88739058 0.66535501,0.88739058 1.3697217,0.36826948 2.1424398,0.08034758 3.0069094,0.01490508 c 0.894449,-0.067712 1.5678711,0.087833 2.6847615,0.6201186 0.8431107,0.40180942 3.732708,2.15041962 6.6037431,3.99618932 1.758072,1.1302518 1.829834,1.1893713 2.170034,1.7877176 0.460683,0.8102484 0.466926,1.3037111 0.02605,2.0592034 -0.325178,0.557236 -0.330576,0.560986 -4.089292,2.841234 -3.8636202,2.343886 -4.6269806,2.759766 -5.801555,3.160695 -1.0678338,0.364493 -1.130478,0.378676 -1.2964071,0.293531 z"
         id="path3821"
         sodipodi:nodetypes="sssscscscsssssssss" />
    </g>
  </g>
</svg>
