<?xml version="1.0" encoding="UTF-8" standalone="no"?>
<!-- Created with Inkscape (http://www.inkscape.org/) -->

<svg
   width="56"
   height="56"
   viewBox="0 0 14.816666 14.816667"
   version="1.1"
   id="svg3216"
   inkscape:version="1.1.2 (b8e25be833, 2022-02-05)"
   sodipodi:docname="repeat.svg"
   xmlns:inkscape="http://www.inkscape.org/namespaces/inkscape"
   xmlns:sodipodi="http://sodipodi.sourceforge.net/DTD/sodipodi-0.dtd"
   xmlns="http://www.w3.org/2000/svg"
   xmlns:svg="http://www.w3.org/2000/svg">
  <sodipodi:namedview
     id="namedview3218"
     pagecolor="#505050"
     bordercolor="#eeeeee"
     borderopacity="1"
     inkscape:pageshadow="0"
     inkscape:pageopacity="0"
     inkscape:pagecheckerboard="0"
     inkscape:document-units="px"
     showgrid="false"
     units="px"
     width="56px"
     inkscape:zoom="4.8754394"
     inkscape:cx="30.869013"
     inkscape:cy="61.943135"
     inkscape:window-width="1680"
     inkscape:window-height="987"
     inkscape:window-x="-8"
     inkscape:window-y="-8"
     inkscape:window-maximized="1"
     inkscape:current-layer="layer1"
     height="112px" />
  <defs
     id="defs3213" />
  <g
     inkscape:label="Слой 1"
     inkscape:groupmode="layer"
     id="layer1">
    <path
       style="fill:#b0b0b0;fill-opacity:1;stroke:#888888;stroke-width:1.04952;stroke-linecap:round;stroke-linejoin:round;stroke-miterlimit:16.2;stroke-dasharray:none;stroke-opacity:1;paint-order:fill markers stroke"
       d="M 1.390147,14.175754 C 1.341974,14.091344 1.31851,11.880478 1.31851,7.4256998 1.31851,1.8070255 1.333379,0.7820934 1.416442,0.67555749 1.51184,0.55320025 1.6633671,0.54950265 7.2712182,0.53268849 13.024061,0.51543959 13.02819,0.51552179 13.211831,0.65097739 L 13.3956,0.78652731 13.37787,5.1978515 13.36014,9.3654645 9.6337847,9.3829722 6.3085167,9.40048 6.1877562,9.2625616 C 6.0782578,9.1375058 6.0669943,9.1728705 6.0669943,7.2724875 c 0,-2.009588 0.00569,-2.1011938 0.1380134,-2.2252837 0.1256924,-0.1178637 -0.1710611,-0.1294177 0.7675357,-0.1294177 0.5668337,0 1.110259,0.028398 1.2076136,0.063107 l 0.1770086,0.063107 V 6.0809422 7.117884 H 9.2542501 10.953501 V 5.3060433 2.708905 H 7.1840613 3.6552664 v 4.6678187 4.5053453 l 5.0296861,0.0065 c 2.4574935,0.0035 4.5458035,0.02671 4.6406865,0.05145 l 0.172518,0.045 v 0.830211 1.453029 l -6.0181871,0.01654 c -5.8946425,0.01616 -6.0196568,0.0139 -6.0898229,-0.109029 z"
       id="path7774"
       sodipodi:nodetypes="csssscccccsscssccccccccccccccccccc" />
  </g>
</svg>
