<?xml version="1.0" encoding="UTF-8" standalone="no"?>
<!-- Created with Inkscape (http://www.inkscape.org/) -->

<svg
   width="56"
   height="56"
   viewBox="0 0 14.816666 14.816667"
   version="1.1"
   id="svg3216"
   inkscape:version="1.1.2 (b8e25be833, 2022-02-05)"
   sodipodi:docname="repeatOff.svg"
   xmlns:inkscape="http://www.inkscape.org/namespaces/inkscape"
   xmlns:sodipodi="http://sodipodi.sourceforge.net/DTD/sodipodi-0.dtd"
   xmlns="http://www.w3.org/2000/svg"
   xmlns:svg="http://www.w3.org/2000/svg">
  <sodipodi:namedview
     id="namedview3218"
     pagecolor="#505050"
     bordercolor="#eeeeee"
     borderopacity="1"
     inkscape:pageshadow="0"
     inkscape:pageopacity="0"
     inkscape:pagecheckerboard="0"
     inkscape:document-units="px"
     showgrid="false"
     units="px"
     width="56px"
     inkscape:zoom="9.7508788"
     inkscape:cx="28.664083"
     inkscape:cy="27.792367"
     inkscape:window-width="1680"
     inkscape:window-height="987"
     inkscape:window-x="-8"
     inkscape:window-y="-8"
     inkscape:window-maximized="1"
     inkscape:current-layer="layer1" />
  <defs
     id="defs3213" />
  <g
     inkscape:label="Слой 1"
     inkscape:groupmode="layer"
     id="layer1">
    <path
       style="fill:#737b8e;fill-opacity:1;stroke-width:0.0739778"
       d="m 39.366067,16.47259 c -0.933604,-0.45976 -1.699802,-0.93583 -2.667545,-1.65744 -0.467465,-0.34857 -0.909713,-0.67383 -0.982774,-0.72279 -0.128914,-0.0864 -0.133357,-0.22462 -0.150437,-4.6807103 -0.01205,-3.14419 0.0054,-4.64225 0.05529,-4.7521 0.09666,-0.21272 2.160731,-1.39199 3.342318,-1.90957 1.247257,-0.54634 2.235628,-0.84126 2.658818,-0.79337 0.809624,0.0916 1.675356,0.89931 2.147446,2.00346 l 0.236551,0.55325 0.04497,2.38531 c 0.02473,1.31192 0.04435,2.65627 0.04359,2.98745 -0.0025,1.0860903 -0.100808,4.9336903 -0.130561,5.1085503 -0.04576,0.26896 -1.098916,0.97008 -2.175684,1.44842 -0.465703,0.20688 -0.756709,0.28261 -1.195017,0.31096 -0.555072,0.0359 -0.606596,0.0241 -1.22697,-0.28142 z M 32.408573,14.9891 C 31.59918,14.72603 30.640367,13.88736 30.124144,12.99091 29.571372,12.03099 29.277653,10.8283 29.277653,9.5247897 c 0,-1.71549 0.44605,-3.05691 1.389885,-4.17982 0.577458,-0.68702 1.042347,-1.0263 1.741033,-1.2706 0.439834,-0.15379 1.438364,-0.175 1.558831,-0.0331 0.06198,0.073 0.0818,1.39243 0.0818,5.44701 0,6.2231803 0.08475,5.6208503 -0.789265,5.6092203 -0.296973,-0.004 -0.680086,-0.0527 -0.851362,-0.10839 z"
       id="path3289" />
    <rect
       style="fill:#2d2d2d;fill-opacity:1;stroke-width:0.265203;stroke-linecap:round;stroke-linejoin:round"
       id="rect6432"
       width="2.2254717"
       height="20.029247"
       x="18.209734"
       y="22.544739"
       ry="1.1127359"
       transform="rotate(-45)" />
    <path
       style="fill:#888888;fill-opacity:1;stroke:#3c3c3c;stroke-width:1.04952;stroke-linecap:round;stroke-linejoin:round;stroke-miterlimit:16.2;stroke-dasharray:none;stroke-opacity:1;paint-order:fill markers stroke"
       d="M 1.390147,14.175754 C 1.341974,14.091344 1.31851,11.880478 1.31851,7.4256998 1.31851,1.8070255 1.333379,0.7820934 1.416442,0.67555749 1.51184,0.55320025 1.6633671,0.54950265 7.2712182,0.53268849 13.024061,0.51543959 13.02819,0.51552179 13.211831,0.65097739 L 13.3956,0.78652731 13.37787,5.1978515 13.36014,9.3654645 9.6337847,9.3829722 6.3085167,9.40048 6.1877562,9.2625616 C 6.0782578,9.1375058 6.0669943,9.1728705 6.0669943,7.2724875 c 0,-2.009588 0.00569,-2.1011938 0.1380134,-2.2252837 0.1256924,-0.1178637 -0.1710611,-0.1294177 0.7675357,-0.1294177 0.5668337,0 1.110259,0.028398 1.2076136,0.063107 l 0.1770086,0.063107 V 6.0809422 7.117884 H 9.2542501 10.953501 V 5.3060433 2.708905 H 7.1840613 3.6552664 v 4.6678187 4.5053453 l 5.0296861,0.0065 c 2.4574935,0.0035 4.5458035,0.02671 4.6406865,0.05145 l 0.172518,0.045 v 0.830211 1.453029 l -6.0181871,0.01654 c -5.8946425,0.01616 -6.0196568,0.0139 -6.0898229,-0.109029 z"
       id="path7774"
       sodipodi:nodetypes="csssscccccsscssccccccccccccccccccc" />
  </g>
</svg>
